<?xml version="1.0" encoding="UTF-8" standalone="no"?>
<svg width="263px" height="273px" viewBox="0 0 263 273" version="1.1" xmlns="http://www.w3.org/2000/svg" xmlns:xlink="http://www.w3.org/1999/xlink">
    <!-- Generator: Sketch 49.3 (51167) - http://www.bohemiancoding.com/sketch -->
    <title>Group</title>
    <desc>Created with Sketch.</desc>
    <defs>
        <linearGradient x1="49.8485228%" y1="50.0696069%" x2="125.885228%" y2="26.0954133%" id="linearGradient-1">
            <stop stop-color="#A40000" offset="8%"></stop>
            <stop stop-color="#CC0000" offset="65%"></stop>
        </linearGradient>
    </defs>
    <g id="Page-1" stroke="none" stroke-width="1" fill="none" fill-rule="evenodd">
        <g id="VV-Logo-Stacked_type" transform="translate(-23.000000, 0.000000)" fill-rule="nonzero">
            <g id="Group" transform="translate(23.000000, 0.000000)">
                <path d="M262.8,38.8 L251.1,38.8 C238.2,39 226.9,46.1 220.8,56.5 L131.4,215.6 L41.9,56.5 C35.8,46.1 24.6,39 11.7,38.8 L0.2,38.8 L131.5,272.4 L262.8,38.8 Z" id="Shape" fill="#CC0000"></path>
                <polygon id="Shape" fill="#CC0000" points="243 0 19.8 0 131.5 198.4"></polygon>
                <polygon id="Shape" fill="url(#linearGradient-1)" points="131.4 0 19.8 0 131.5 198.4"></polygon>
                <path d="M186.9,51 L186.8,51 C186.7,51.3 186.4,51.5 186.4,51.9 C186.4,52 186.2,52.1 186.2,52.2 C185.9,52.7 185.5,53 185.1,53.3 C184.8,53.5 184.6,53.7 184.3,53.8 C183.4,54.3 182.5,54.6 181.5,54.9 C180.4,55.3 179.2,55.6 178.1,56.1 C176.9,56.5 175.7,57.1 174.6,57.6 C174.1,57.8 173.6,58.1 173.2,58.3 C171.6,59.2 169.9,60 168.3,60.9 C167.6,61.3 167,61.6 166.3,62 C166,62.2 165.6,62.3 165.3,62.5 C164.8,62.8 164.2,63.1 163.7,63.4 C162.9,63.8 162.2,64.3 161.4,64.7 C160.6,65.2 159.7,65.7 158.9,66.2 C158.2,66.6 157.5,67 156.8,67.4 C156.1,67.8 155.5,68.2 154.8,68.6 C153.9,69.2 152.9,69.7 152,70.3 C151.8,70.4 151.7,70.6 151.6,70.7 C151.4,70.8 151.3,70.9 151.2,71 C150.7,71.2 150.4,71.5 150,71.8 C149.4,72.2 148.7,72.7 148.1,73.1 C147.9,73.2 147.7,73.4 147.6,73.6 C147.5,73.8 147.3,73.8 147.1,74 C146.9,74.1 146.7,74.3 146.8,74.6 C146.8,74.8 146.8,75 146.7,75.2 C146.7,75.4 146.7,75.6 146.7,75.9 C146.7,76 146.7,76.1 146.8,76.2 C146.7,76.3 146.7,76.4 146.6,76.6 C146.9,76.8 146.7,77.1 146.6,77.4 C146.8,77.6 146.8,77.8 146.7,78.1 C146.6,78.4 146.4,78.6 146.7,78.9 C146.8,79 146.7,79.2 146.5,79.1 C146.5,79.2 146.5,79.3 146.6,79.4 C146.7,79.6 146.7,79.8 146.6,80 L146.6,80.1 C146.8,80.5 146.6,80.9 146.6,81.3 C146.6,81.7 146.5,82.1 146.6,82.5 C146.6,82.6 146.6,82.8 146.6,82.9 C146.6,83 146.7,83.2 146.5,83.3 C146.4,83.3 146.4,83.5 146.5,83.6 C146.6,83.7 146.6,84 146.6,84.1 C146.5,84.7 146.6,85.4 146.5,86 C146.5,86.2 146.5,86.4 146.5,86.7 C146.5,86.9 146.4,87 146.6,87.1 L146.6,87.2 C146.5,87.5 146.5,87.8 146.5,88 C146.5,88.3 146.5,88.6 146.6,88.9 C146.1,89 146.4,89.4 146.3,89.7 C146.4,89.8 146.7,89.8 146.6,90.1 C146.5,90.1 146.4,90.1 146.3,90.2 C146.4,90.3 146.5,90.4 146.6,90.6 L146.5,90.6 C146.8,91.1 146.5,91.4 146.3,91.8 C146.4,92 146.5,92.3 146.6,92.5 C146.7,92.7 146.7,92.8 146.5,92.9 C146.3,93 146.2,93.2 146.3,93.4 C146.4,93.6 146.5,93.7 146.5,93.9 C146.4,93.9 146.3,94 146.2,94 C146.2,94.2 146.2,94.3 146.2,94.6 C146.3,94.6 146.4,94.5 146.4,94.5 C146.5,94.6 146.5,94.8 146.5,94.9 C146.4,94.9 146.4,95 146.3,95 C146.4,95.2 146.6,95.4 146.2,95.6 C146.4,95.8 146.5,95.9 146.7,96.1 C146.6,96.2 146.6,96.4 146.5,96.6 C146.6,96.6 146.7,96.6 146.8,96.7 C146.7,96.8 146.5,97 146.8,97.1 L146.9,97.2 C146.8,97.5 147.1,97.8 146.9,98.1 C146.9,98.1 146.8,98.1 146.7,98 C146.8,98.2 146.8,98.5 146.7,98.7 C146.7,98.8 146.8,99 146.9,99.1 C147,99 147.1,99 147.2,98.9 C147.2,99.1 147.3,99.2 147.3,99.4 C147.3,99.7 147.4,100 147.5,100.2 C147.6,100.3 147.6,100.5 147.5,100.6 C147.4,100.7 147.3,100.9 147.2,101 C147.2,101 147.3,101.1 147.4,101.2 C147.3,101.2 147.2,101.3 147.1,101.3 C147.1,101.5 147.1,101.7 147.1,101.9 C147.1,102 147.2,102 147.3,102.1 C147.3,102.1 147.4,102 147.5,101.9 C147.4,102.2 148,102.2 147.7,102.5 C147.8,102.6 147.9,102.6 148,102.7 C147.7,102.8 147.7,103 147.6,103.2 C147.6,103.4 147.5,103.4 147.4,103.5 C147.4,103.7 147.9,103.7 147.7,104 C147.9,104.1 148,104.1 148.1,104.2 C147.9,104.4 147.7,104.5 147.8,104.8 L147.7,104.9 C147.4,105.1 147.5,105.2 147.8,105.3 L147.9,105.4 C147.8,105.5 147.6,105.6 147.5,105.7 C147.4,105.8 147.4,106 147.3,106.2 C147.2,106.4 147,106.6 146.8,106.8 C146.4,107.1 146,107.3 145.6,107.5 L144.2,107.5 C144.1,107.5 144.1,107.4 144,107.4 C142.9,107.1 142.2,106.5 141.9,105.4 C141.7,104.5 141.5,103.6 141.5,102.7 C141.5,102.1 141.6,101.5 141.6,100.8 C141.6,100.1 141.6,99.3 141.6,98.6 C141.6,98.3 141.6,98 141.6,97.7 C141.6,96.9 141.6,96 141.7,95.2 C141.8,94.6 141.8,93.9 141.7,93.3 C141.7,93.2 141.7,93 141.7,92.9 C141.7,92.6 141.7,92.4 141.7,92.1 C141.7,91.8 141.7,91.4 141.7,91.1 C141.7,90.6 141.8,90.1 141.7,89.7 L141.7,89.5 C141.9,89.4 141.8,89.2 141.8,89 L141.8,84.7 L141.8,80.2 C141.8,79.6 141.8,78.9 141.8,78.3 L141.8,77.3 C141.4,77.6 141,77.8 140.6,78 C139.9,78.5 139.2,79 138.5,79.6 C137.8,80.2 137,80.7 136.3,81.3 C136,81.6 135.6,81.9 135.2,82.1 C134.6,82.5 134,83 133.5,83.5 C132.9,84 132.3,84.5 131.6,85.1 C130.7,85.8 129.8,86.5 129,87.2 C128.1,88 127.2,88.7 126.3,89.5 C125.7,90 125,90.6 124.3,91.1 C124.2,91.2 124.1,91.3 124,91.4 C123.8,91.6 123.5,91.8 123.3,92.1 C123.1,92.3 122.9,92.6 122.6,92.8 C122.2,93.2 121.8,93.5 121.4,93.8 C121,94.2 120.6,94.6 120.2,95 C119.9,95.2 119.7,95.5 119.4,95.7 C119.3,95.8 119.2,96 119.1,96.1 C119,96.3 118.8,96.4 118.7,96.5 C118.5,96.7 118.3,96.9 118.2,97 C117.5,97.7 116.9,98.4 116.2,99.1 C115.7,99.6 115.2,100.1 114.8,100.6 C114.7,100.7 114.6,100.8 114.5,100.9 C114.3,101.1 114.2,101.2 114,101.4 C113.9,101.5 113.9,101.5 113.8,101.6 C113.3,102.1 112.7,102.6 112.2,103.1 C111.9,103.4 111.6,103.7 111.3,104 C111,104.3 110.7,104.5 110.2,104.5 C109.6,104.5 109,104.5 108.4,104.3 C107.5,103.9 107,103.2 106.9,102.2 C106.9,101.9 106.8,101.6 106.9,101.3 C107,101.1 107,100.9 107.1,100.7 C107.3,100.4 107.5,100.1 107.7,99.8 C108.5,98.8 109.4,97.9 110.3,97 C110.8,96.5 111.3,96 111.8,95.5 C112.7,94.7 113.5,93.9 114.3,93.1 C115.7,91.9 117.1,90.7 118.5,89.5 C119.2,88.9 119.9,88.3 120.6,87.7 C121.1,87.3 121.5,86.8 122,86.4 C122.4,86 122.9,85.7 123.3,85.4 C124,84.9 124.6,84.3 125.3,83.8 C125.7,83.5 126.1,83.2 126.4,82.9 C126.9,82.5 127.4,82.1 127.9,81.7 C128.2,81.5 128.5,81.2 128.7,81 C129.3,80.6 129.9,80.2 130.5,79.7 C131.4,79 132.3,78.4 133.2,77.7 C133.8,77.3 134.3,76.9 134.9,76.5 C135.4,76.1 136,75.7 136.5,75.3 C137.4,74.6 138.3,73.9 139.3,73.2 C140,72.7 140.7,72.2 141.4,71.7 C141.4,71.2 141.4,70.7 141.4,70.1 C141.4,69.8 141.4,69.5 141.4,69.2 C141.4,69.1 141.4,69 141.3,69 C141.2,69 141.1,69 141,69.1 C140.5,69.4 140.1,69.8 139.6,70.1 L139.5,70.1 C139.2,70.2 138.9,70.2 138.6,70.4 C138.3,70.5 138,70.7 137.7,70.6 C137.4,70.6 137,70.7 136.7,70.8 C136,70.9 135.2,70.9 134.5,70.7 C133.6,70.4 132.9,69.8 132.5,68.9 C132.2,68.2 132.1,67.4 132.1,66.6 C132.1,65.6 132.1,64.6 132.1,63.6 C132.1,63.3 132,62.9 132,62.6 C132,62.4 132.1,62.2 132.1,61.9 C132.1,61.5 132.2,61.1 132.2,60.7 C132.2,59.9 132.3,59.2 132.5,58.4 C132.6,57.6 132.8,56.8 133,56.1 C133.2,55.3 133.5,54.5 134,53.8 C134.5,53 135.1,52.2 135.6,51.5 C136,51 136.4,50.7 136.9,50.4 C137,50.4 137.1,50.3 137.1,50.3 C137.7,49.7 138.5,49.6 139.3,49.4 C139.6,49.4 139.9,49.4 140.2,49.6 C140.5,49.8 140.6,50.2 140.6,50.5 C140.6,50.9 140.4,51.2 140.4,51.6 C140.4,51.9 140.2,52.1 140,52.3 C139.9,52.6 139.6,52.8 139.4,53 C139.3,53 139.3,53.1 139.2,53.2 C139,53.5 138.9,53.8 138.6,54.1 L138.6,54.2 C138.6,54.6 138.3,54.8 138.1,55.2 C138.1,55.3 138,55.4 138,55.5 C138,55.8 137.9,56.1 137.7,56.3 C137.6,56.4 137.6,56.5 137.6,56.6 C137.5,57 137.4,57.4 137.3,57.8 C137.3,57.9 137.2,58 137.2,58.2 C137.1,58.6 137,59 137.1,59.3 C137.1,59.4 137.2,59.5 137.2,59.5 C137.3,59.7 137.3,59.9 137.2,60.1 C137.1,60.2 137.1,60.4 137.1,60.6 C137.1,60.9 137,61.3 137,61.6 C137,61.8 137,62 137,62.2 C137,62.3 137,62.4 137,62.4 C136.8,62.8 136.9,63.2 136.9,63.6 C136.9,63.8 136.9,64 136.9,64.3 C136.9,64.7 137.1,65.1 137.3,65.5 C137.5,65.9 137.8,66.1 138.3,66.1 C139.2,66.1 139.9,65.7 140.5,65.1 C141.1,64.5 141.3,63.7 141.5,62.9 C141.7,61.7 141.8,60.6 142,59.4 C142.1,58.8 142.2,58.2 142.2,57.7 C142.2,57.4 142.2,57.1 142.2,56.8 L142.2,57 C142.4,56.8 142.4,56.5 142.4,56.3 C142.5,55.4 142.5,54.5 142.6,53.6 C142.6,53.1 142.7,52.5 142.7,52 C142.7,51.4 142.8,50.8 142.8,50.3 C142.8,49.9 142.8,49.4 143,49 C143.3,48.4 143.7,48.1 144.3,47.8 C144.8,47.5 145.4,47.5 146,47.6 C146.4,47.7 146.8,47.8 147,48.1 C147.1,48.3 147.4,48.5 147.4,48.8 C147.4,48.9 147.4,49 147.4,49.1 C147.4,49.4 147.4,49.8 147.3,50.1 C147.3,50.2 147.4,50.4 147.4,50.5 C147.4,50.6 147.2,50.6 147.3,50.8 C147.4,50.9 147.3,51.1 147.2,51.3 C147.1,51.5 147.1,51.7 147.2,51.9 C147.3,52.2 147.2,52.5 147.2,52.8 C147.2,53.1 147.1,53.4 147,53.7 C147,53.8 146.9,53.9 147,54 C146.7,54.4 146.8,54.8 146.8,55.2 C146.7,56.4 146.6,57.5 146.5,58.7 C146.4,59.6 146.4,60.5 146.3,61.4 C146.3,61.6 146.2,61.8 146.2,62 C146.2,62.6 146.1,63.2 146.1,63.7 C146.1,63.9 146.1,64.1 146.2,64.4 C146.3,64.6 146.3,64.8 146.2,65 C146.1,65.4 146.1,65.7 146.1,66.1 C146.1,66.3 146.1,66.5 146.1,66.7 C146.1,67.1 146,67.4 146,67.8 C146,68.2 146,68.5 146,68.9 C146,69 146,69 146,69.2 C146.1,69.1 146.2,69.1 146.3,69 C146.9,68.6 147.4,68.2 148,67.9 C149,67.3 150,66.6 151,66 C151.3,65.8 151.6,65.6 151.9,65.5 C152.5,65.1 153.1,64.7 153.7,64.3 C154.5,63.9 155.1,63.3 156,63 C156.2,63 156.3,62.8 156.4,62.7 C156.7,62.6 156.7,62.2 157.1,62.3 C157.3,62.2 157.6,62 157.8,61.9 C158,61.8 158.3,61.6 158.5,61.5 C158.7,61.4 159,61.2 159.2,61.1 C159.4,61 159.7,60.8 159.9,60.7 C160.2,60.5 160.6,60.3 160.9,60.1 C162.1,59.4 163.3,58.7 164.5,58.1 C165.5,57.6 166.4,57 167.4,56.5 C168.5,55.9 169.5,55.3 170.5,54.7 C170.7,54.6 170.9,54.4 171.2,54.3 C171.1,54.2 171,54.1 171,54.1 C170.4,53.8 170.1,53.3 169.9,52.7 C169.8,52.4 169.8,52 169.8,51.6 C169.8,51.2 169.8,50.8 169.8,50.4 L169.8,50.3 C170,49.8 169.9,49.2 170,48.7 C170,48.6 170,48.5 170,48.5 C169.8,48 169.9,47.6 170,47.1 C170,47 170,46.9 170,46.7 C170,46.6 169.9,46.5 169.9,46.4 C170.1,46.1 170,45.8 170,45.5 C170.1,45.2 170.1,44.9 170.1,44.6 C170.1,43.7 170.1,42.8 170.1,41.9 C170.1,41.6 170.1,41.4 169.9,41.2 C169.7,40.9 169.5,40.8 169.2,40.8 C169,40.8 168.8,40.8 168.6,40.8 C168.1,40.8 167.7,41.1 167.4,41.4 C167.3,41.5 167.1,41.5 167,41.7 C166.9,41.9 166.7,42 166.7,42.2 C166.6,42.4 166.5,42.5 166.4,42.6 C166.2,42.8 165.9,43 165.9,43.3 C165.8,43.4 165.6,43.6 165.5,43.7 C165.5,44 165.5,44.3 165.2,44.5 L165.2,44.7 C165.2,45 165.3,45.3 165.1,45.5 C165,45.6 165.3,45.7 165.2,45.8 C165.1,45.9 165,45.9 164.9,45.9 C164.9,45.9 164.9,46 164.8,46 C164.9,46 165,46.1 165,46.1 C165,46.3 165,46.5 164.9,46.7 C164.6,46.8 164.6,46.8 164.6,47.1 C164.6,47.3 164.7,47.4 164.8,47.6 C164.9,47.7 164.8,47.9 164.7,48 C164.5,48.1 164.5,48.3 164.3,48.4 C164.3,48.4 164.3,48.7 164.3,48.7 C164.5,48.8 164.5,49 164.5,49.3 C164.5,49.4 164.5,49.5 164.6,49.7 C164.5,49.8 164.3,49.9 164.2,50 C164,50.2 164.2,50.3 164.2,50.4 C164.1,50.6 164.1,50.8 164.1,50.9 C164.1,51.2 164.1,51.4 164.1,51.7 C164.1,51.9 164,52.2 164.4,52.2 C164.2,52.5 164,52.7 164.3,53 C164.2,53 164.2,53.1 164.2,53.1 C164.4,53.3 164.4,53.3 164.3,53.6 C164.2,53.8 164.1,54 164.2,54.2 C164.2,54.2 164.2,54.3 164.2,54.4 C164.2,54.5 164.1,54.6 164.2,54.6 C164.4,54.8 164.3,55 164.1,55.2 C163.8,55.5 163.7,55.9 163.6,56.3 C163.6,56.4 163.6,56.4 163.5,56.5 C163.2,56.8 162.8,57.1 162.4,57.3 C162.1,57.4 161.8,57.6 161.5,57.8 C161,58 160.5,58 160,57.9 C159.4,57.8 159.1,57.4 159,56.7 C158.9,56.2 159,55.7 159,55.2 C159,54.4 159.1,53.5 159.1,52.7 C159.1,51.7 159.2,50.8 159.2,49.8 C159.2,49 159.3,48.2 159.3,47.4 C159.4,46.3 159.4,45.2 159.5,44.1 C159.5,43.7 159.5,43.4 159.6,43 C159.7,42.3 160,41.8 160.3,41.2 C161,40.2 161.9,39.7 163.1,39.6 C163.2,39.6 163.2,39.6 163.3,39.6 C163.6,39.6 163.9,39.7 164.2,39.5 C164.4,39.4 164.6,39.5 164.8,39.6 C165.2,39.7 165.6,39.8 166,39.6 C166.4,39.4 166.8,39.2 167.1,39 C167.2,38.8 167.4,38.7 167.5,38.5 C167.6,38.4 167.7,38.3 167.8,38.1 C168.1,37.8 168.4,37.5 168.8,37.1 L168.9,37 C169.5,36.6 170.2,36.2 170.9,36 C171.4,35.8 171.9,35.7 172.5,35.8 C173,35.9 173.5,36 173.8,36.4 C174.1,36.8 174.3,36.9 174.3,37.4 C174.3,37.6 174.4,37.7 174.6,37.8 L174.7,37.9 C174.4,38.2 174.5,38.4 174.8,38.6 C174.8,38.8 174.8,39 174.8,39.2 C174.8,39.2 174.6,39.3 174.6,39.3 C174.5,39.4 174.5,39.6 174.5,39.7 C174.5,39.9 174.5,40 174.5,40.2 C174.6,40.2 174.6,40.1 174.7,40 C174.7,40.3 174.5,40.5 174.8,40.7 C174.7,40.7 174.6,40.7 174.5,40.7 C174.5,41.1 174.6,41.4 174.6,41.8 C174.5,41.8 174.4,41.8 174.4,41.9 C174.3,42.1 174.4,42.3 174.6,42.4 C174.5,42.5 174.4,42.5 174.3,42.6 C174.4,42.7 174.4,42.8 174.5,42.9 C174.4,43 174.3,43.1 174.3,43.2 C174.3,43.8 174.3,44.4 174.3,45 C174.3,45.1 174.4,45.3 174.5,45.4 C174.4,45.5 174.2,45.6 174.4,45.9 L174.4,46.1 C174.3,46.4 174.3,46.4 174.6,46.5 C174.6,46.7 174.6,46.9 174.6,47.1 C174.6,47.1 174.5,47.2 174.5,47.3 C174.5,47.5 174.6,47.7 174.4,47.9 L174.4,48 C174.5,48.2 174.5,48.2 174.4,48.4 L174.4,48.5 C174.5,48.6 174.6,48.6 174.7,48.7 C174.5,48.8 174.5,48.9 174.5,49 C174.5,49.1 174.4,49.3 174.6,49.4 L174.7,49.5 C174.6,49.7 174.8,49.8 175,49.9 C175,50 174.9,50.1 174.9,50.1 C174.9,50.2 174.8,50.2 174.8,50.3 C175,50.4 175.1,50.5 175.1,50.7 C175.1,50.7 175.1,51 175.3,51 L175.4,51.1 C175.7,51.4 175.9,51.5 176.3,51.4 C176.6,51.3 177,51.2 177.3,51 C178.2,50.6 179.1,50.1 180,49.6 C180.5,49.3 181.1,49 181.6,48.8 C182.3,48.5 183,48.5 183.8,48.6 C184.1,48.6 184.3,48.7 184.6,48.7 C184.9,48.7 185.2,49 185.4,49.3 C185.6,49.7 185.8,50 185.9,50.4 L185.9,50.6 C185.8,50.8 185.7,50.9 185.9,51.1 L185.9,51 L186.9,51 Z M120.5,15.9 C119.5,16.2 118.8,16.7 118.1,17.4 C117.7,17.9 117.2,18.3 117,19 C116.8,19.5 116.5,20 116.2,20.5 C115.9,21.1 115.7,21.7 115.5,22.4 C114.9,24 114.3,25.6 113.6,27.2 C113.2,28.3 112.8,29.4 112.4,30.5 C112.2,31.2 111.9,31.8 111.7,32.5 C111.1,34 110.6,35.6 110,37.1 C109.9,37.3 109.8,37.5 109.7,37.7 C109.6,37.9 109.5,38.1 109.4,38.4 C109.3,38.7 109.2,39.1 109.1,39.4 C109,39.8 108.8,40.1 108.7,40.5 C108.5,41.3 108.3,42.1 108,42.9 C108,43 107.9,43.1 107.9,43.2 C107.8,43.4 107.8,43.6 107.7,43.7 C107.7,44 107.7,44.3 107.5,44.5 C107.4,44.6 107.5,44.7 107.4,44.8 C107.4,45 107.3,45.1 107.3,45.3 C106.9,46.5 106.6,47.8 106.2,49 C106.1,49.5 106,50.1 105.9,50.6 C105.7,51.2 105.5,51.8 105.4,52.4 C105.1,53.6 104.8,54.9 104.4,56.1 C104.4,56.3 104.3,56.5 104.2,56.7 C104.1,57.1 104,57.5 103.9,57.9 C103.8,58.3 103.7,58.6 103.6,59 C103.3,60.4 103.1,61.7 102.8,63.1 C102.6,64.2 102.3,65.3 102.2,66.4 C102,67.6 101.8,68.8 101.6,70 C101.5,70.7 101.4,71.4 101.3,72.1 C101.1,73.3 100.9,74.4 100.7,75.6 C100.6,76.3 100.5,77.1 100.4,77.8 C100.4,78 100.3,78.2 100.2,78.4 C100.1,78.3 100,78.3 100,78.2 C99.9,78.1 99.9,78.1 99.9,78 C99.9,77.8 99.8,77.6 99.9,77.3 C99.9,77.1 99.9,76.9 99.7,76.9 C99.7,76.4 99.7,75.9 99.5,75.4 C99.5,75.3 99.5,75.2 99.5,75.1 C99.5,74.8 99.6,74.5 99.6,74.2 C99.6,74 99.5,73.9 99.4,73.7 C99.3,73.5 99.1,73.3 99.3,73 C99.2,73 99.1,73 99,72.9 C99.1,72.5 99,72.1 99.2,71.8 C99.4,71.4 99.3,71.1 99.2,70.8 L99.1,70.7 C99,70.3 98.8,70 98.8,69.6 C98.8,69.2 98.7,68.9 98.6,68.6 C98.5,68.3 98.3,68 98.6,67.6 C98.4,67.2 98.4,67.2 98.3,66.6 C98.3,66.4 98.2,66.2 98.1,65.9 C98,65.6 97.7,65.3 97.9,64.9 C97.8,64.7 97.7,64.6 97.7,64.5 C97.7,64.1 97.6,63.8 97.6,63.4 C97.5,63.1 97.5,62.7 97.4,62.3 C97.4,62 97.3,61.8 97.3,61.5 C97.3,61.1 97,60.7 97.3,60.3 C97.3,60.3 97.3,60.2 97.3,60.1 C97.3,60 97.2,59.9 97.2,59.8 C97.3,59.6 97.2,59.5 97.1,59.4 C97.1,59.2 97.1,59 97,58.9 C97,58.7 96.9,58.6 96.9,58.4 C96.9,58.3 96.9,58.2 96.9,58.1 C96.7,57.8 96.7,57.4 96.7,57.1 C96.6,56.4 96.5,55.8 96.4,55.1 C96.2,53.8 95.9,52.4 95.7,51.1 C95.6,50.6 95.4,50.1 95.1,49.6 C94.4,48.6 92.8,48.4 91.8,49 C91.2,49.3 90.9,49.8 90.7,50.4 C90.5,50.8 90.4,51.2 90.3,51.7 C90,52.7 89.7,53.6 89.3,54.6 C89.3,54.8 89.2,54.9 89.1,55.1 C89,55.3 88.9,55.5 88.9,55.8 C88.8,56 88.7,56.2 88.7,56.5 C88.6,56.8 88.5,57.1 88.4,57.4 C88.3,58.2 87.9,58.9 87.7,59.6 C87.6,59.9 87.5,60.1 87.4,60.4 C87.3,60.9 87.2,61.4 86.9,61.8 C86.8,62 86.8,62.2 86.7,62.4 C86.7,62.7 86.6,63 86.4,63.2 C86.3,63.3 86.2,63.5 86.2,63.7 C86.1,64.3 85.9,64.8 85.7,65.3 C85.5,65.7 85.4,66.1 85.3,66.6 C85.2,67.2 84.9,67.8 84.7,68.4 C84.5,69 84.3,69.6 84.1,70.1 C84.1,70.2 84.1,70.3 84.1,70.4 C84.3,71.3 84.8,71.9 85.7,72.1 C86,72.2 86.3,72.1 86.5,72.1 C87.1,72.1 87.5,71.8 87.9,71.4 C88,71.3 88.1,71.2 88.1,71.2 C88.2,71 88.2,70.9 88.3,70.7 C88.3,70.6 88.4,70.6 88.4,70.5 C88.6,70 88.7,69.5 89,69.1 C89.1,69 89.1,68.8 89.2,68.7 C89.3,68.4 89.3,68.2 89.6,68.1 C89.6,68 89.5,67.9 89.6,67.9 C89.7,67.6 89.9,67.3 90,67.1 C90,67 90,67 90,66.9 C90,66.8 90,66.6 90,66.5 C90.3,66.5 90.1,66.3 90.2,66.1 C90.3,65.8 90.3,65.5 90.5,65.3 L90.5,65.2 C90.4,64.8 90.8,64.6 90.8,64.3 C91.1,64.1 91,63.7 91,63.4 C91.1,63.4 91.2,63.3 91.2,63.3 C91.2,63.2 91.3,63 91.3,63 C91.5,63 91.5,62.8 91.6,62.7 C91.7,62.5 91.8,62.2 91.8,62 C91.8,61.9 91.9,61.8 92,61.8 C92.2,61.8 92.3,61.9 92.4,62 C92.5,62.1 92.6,62.2 92.5,62.4 C92.5,62.4 92.5,62.5 92.5,62.6 C92.6,62.6 92.7,62.5 92.8,62.5 C92.8,62.7 92.8,62.9 92.8,63.1 C92.7,63.4 92.8,63.6 92.8,63.9 C92.8,64.1 92.8,64.2 93,64.3 C93.1,64.4 93.2,64.6 93.2,64.7 C93.2,65.1 93.3,65.4 93.4,65.7 C93.5,66.5 93.7,67.4 93.8,68.2 C93.9,68.8 94,69.3 93.9,69.9 C93.9,70 93.9,70.2 94,70.2 C94.2,70.4 94.2,70.7 94.2,71 C94.2,71.3 94.3,71.6 94.3,71.9 C94.5,73 94.7,74.2 94.8,75.3 C94.9,76.3 95.1,77.3 95.2,78.3 C95.3,79.2 95.5,80.2 95.6,81.1 C95.8,82 95.9,82.9 96.1,83.9 C96.2,84.4 96.3,84.9 96.1,85.5 L96.1,85.6 C96.5,85.9 96.6,86.1 96.2,86.5 C96.5,86.4 96.6,86.5 96.6,86.8 C96.7,87.4 96.7,88 96.9,88.6 C96.9,88.8 97,89 96.9,89.2 C96.9,89.2 96.9,89.3 97,89.4 C97,89.5 97.1,89.5 97.1,89.6 C97.2,90.3 97.3,91.1 97.5,91.8 C97.6,92.6 97.7,93.3 97.9,94.1 C98.1,95 98.3,95.9 98.5,96.8 C98.6,97.3 98.9,97.6 99.2,97.9 C99.8,98.4 100.4,98.3 101,98.2 C101.8,98 102.3,97.5 102.6,96.7 C102.9,95.9 103,95 103.1,94.2 C103.3,93.4 103.4,92.6 103.5,91.8 C103.6,90.8 103.8,89.9 103.9,88.9 C104.1,87.3 104.3,85.7 104.5,84.1 C104.6,83.3 104.7,82.6 104.8,81.8 C104.9,81.4 104.9,80.9 105,80.5 C105.1,80.2 105.3,79.8 105.2,79.4 C105.7,79.2 105.7,79.1 105.4,78.7 L105.3,78.5 C105.3,78.3 105.3,78.1 105.4,77.9 C105.4,77.5 105.5,77 105.5,76.6 C105.5,76.3 105.6,76 105.8,75.8 C105.9,75.7 106,75.5 106,75.3 C106,75.2 106,75.1 106,75.1 C106.2,74.7 106.2,74.3 106.2,73.9 C106.2,73.9 106.1,73.8 106.1,73.8 C105.9,73.8 105.9,73.7 105.9,73.5 C105.9,72.9 106.1,72.3 106.2,71.8 C106.2,71.6 106.3,71.3 106.3,71.1 C106.4,70.9 106.4,70.8 106.4,70.6 C106.4,70.4 106.4,70.3 106.5,70.2 C106.6,70.1 106.6,70 106.6,69.9 C106.6,69.5 106.6,69.2 106.6,68.8 C106.6,68.6 106.6,68.5 106.7,68.3 C106.8,67.9 107,67.6 106.9,67.2 C106.9,67.1 107,66.9 107,66.8 C107.1,66.6 107.2,66.5 107.2,66.3 C107.3,66 107.3,65.6 107.2,65.3 C107.1,65.2 107.2,65 107.2,64.9 C107.2,64.8 107.3,64.7 107.3,64.5 C107.3,64.4 107.3,64.3 107.5,64.2 C107.6,64.1 107.7,63.9 107.7,63.8 C107.7,63.7 107.6,63.6 107.7,63.5 L107.7,63.3 C107.6,63.2 107.7,63.1 107.7,63 C107.7,62.9 107.7,62.9 107.7,62.8 C107.7,62.7 107.7,62.6 107.7,62.4 C107.9,61.6 108.1,60.9 108.2,60.1 C108.4,59.1 108.6,58.2 108.9,57.2 C109.1,56.4 109.2,55.6 109.6,54.9 C109.8,54.4 109.8,53.9 110.2,53.5 L110.2,53.4 C110.3,53.1 110.4,52.7 110.5,52.4 C110.5,52.3 110.6,52.2 110.7,52.1 C111.1,51.9 111.1,51.4 111.2,51.1 C111.2,50.8 111.2,50.6 111.2,50.3 C111.3,49.9 111.3,49.5 111.4,49.1 C111.4,48.9 111.4,48.6 111.5,48.4 C111.6,48.2 111.7,48 111.8,47.8 C111.9,47.7 111.9,47.6 111.9,47.4 C112,47 112.1,46.6 112.2,46.2 C112.2,46.1 112.3,46 112.3,46 C112.4,45.8 112.5,45.6 112.6,45.4 C112.6,45.3 112.6,45.2 112.6,45.2 C112.5,45 112.5,44.9 112.6,44.7 C112.7,44.5 112.8,44.2 112.9,43.9 C112.9,43.9 112.9,43.8 112.9,43.7 C112.9,43.6 112.9,43.5 112.9,43.4 C112.9,43.3 113,43.2 113,43.1 C113.1,42.8 113.2,42.4 113.3,42.1 C113.4,41.7 113.6,41.3 113.7,41 C113.8,40.6 113.9,40.3 114.1,39.9 C114.2,39.6 114.3,39.3 114.4,39.1 C114.5,38.9 114.6,38.7 114.7,38.5 C114.9,37.8 115.1,37.2 115.5,36.6 C115.6,36.5 115.6,36.4 115.7,36.3 C115.8,36 116,35.8 116.1,35.5 C116.2,35.4 116.2,35.2 116.2,35.1 C116.2,34.8 116.2,34.6 116.3,34.4 C116.6,33.6 117,32.8 117.3,32 C117.8,30.9 118.3,29.8 118.8,28.7 C118.9,28.4 119.2,28.2 119.3,27.9 C119.6,27.3 119.9,26.9 120.2,26.4 C120.6,25.7 121.2,25.2 121.7,24.6 C121.9,24.4 122.1,24.2 122.3,24.1 C122.4,24 122.5,24.1 122.5,24 C122.6,23.9 122.6,23.8 122.6,23.7 L122.7,23.6 C122.8,23.5 123,23.4 123.1,23.3 C123.3,23.2 123.3,22.9 123.4,22.7 C123.4,22.6 123.4,22.5 123.5,22.5 C123.7,22.2 123.9,22 124.1,21.7 C124.3,21.3 124.5,20.9 124.6,20.4 C124.7,19.7 124.7,19.1 124.5,18.4 C124.2,17.2 123.4,16.4 122.2,16 C121.9,15.9 121.5,15.8 121.2,15.7 L120.5,15.7 L120.5,15.9 Z M126.4,64.1 C126.5,63.9 126.5,63.7 126.5,63.5 C126.6,63.2 126.7,62.8 126.8,62.5 C127.1,61.9 127.5,61.3 128,60.8 C128.5,60.3 129.1,59.8 129.7,59.4 C130.2,59 130.6,58.7 130.9,58.2 C131.2,57.7 131.2,57.1 131.1,56.6 C131.1,56.3 130.8,56 130.7,55.7 C130.4,55.2 130,55.1 129.5,55.1 C129.1,55.1 128.7,55.3 128.4,55.5 C128.2,55.6 127.9,55.7 127.7,55.8 C127.4,55.9 127.2,56 126.9,56.1 C126.4,56.4 126,56.5 125.5,56.6 C124.8,56.7 124.1,56.8 123.4,57.2 C122.8,57.5 122.3,58 121.9,58.6 C121.6,59.2 121.4,59.9 121.3,60.6 C121.2,61.5 121.2,62.3 121.2,63.2 C121.2,63.6 121.1,64.1 121.1,64.5 C121.1,65 121,65.5 121,66.1 C121,66.3 121,66.6 120.9,66.8 C120.8,67.1 120.7,67.5 120.7,67.8 C120.7,68.2 120.5,68.7 120.7,69.1 L120.7,69.2 C120.6,69.6 120.5,70.1 120.7,70.5 C120.7,70.6 120.7,70.6 120.7,70.7 C120.7,71 120.6,71.2 120.6,71.5 C120.6,72 120.4,72.4 120.5,72.8 C120.6,73.2 120.5,73.7 120.5,74.1 C120.5,74.5 120.6,74.8 120.8,75.2 C121.1,75.7 121.6,76 122.1,75.9 C123,75.7 123.9,75.3 124.7,74.5 C125.4,73.9 125.7,73.1 125.7,72.2 C125.7,71.8 125.6,71.4 125.8,71 L125.8,70.8 C125.8,70.4 125.7,70.1 125.8,69.7 C125.8,68.9 125.9,68 125.9,67.2 C125.9,66.9 126,66.7 126,66.5 C126,66 126,65.6 126,65.1 C126,64.9 126,64.6 126.2,64.6 C126.4,64.6 126.4,64.4 126.4,64.1 Z M117.1,62.5 C117.1,62.1 117,61.7 116.7,61.4 C116.4,61 115.9,61 115.4,61.1 C114.4,61.4 113.5,61.9 112.9,62.8 C112.1,63.9 111.8,65.1 111.7,66.4 C111.7,66.9 111.6,67.4 111.6,67.9 C111.6,68.1 111.6,68.3 111.6,68.5 C111.6,68.9 111.6,69.3 111.6,69.6 C111.6,70.4 111.5,71.3 111.5,72.1 C111.5,72.2 111.5,72.3 111.4,72.4 C111.4,72.5 111.3,72.6 111.3,72.7 C111.3,73.1 111.3,73.4 111.2,73.8 C111.2,74.2 111.1,74.6 111.1,75 C111.1,75.9 111,76.8 111,77.7 C111,78.5 110.9,79.3 111,80.1 C111.1,81 111.3,81.2 112.2,81.4 C112.6,81.4 112.9,81.3 113.2,81.2 C113.8,80.8 114.4,80.5 114.9,79.9 L115,79.8 C115.2,79.9 115.3,79.7 115.3,79.5 C115.7,79.5 115.7,79.4 115.7,79.1 L115.4,79.1 C115.4,79 115.4,78.9 115.4,78.8 C115.4,78.6 115.5,78.5 115.5,78.3 C115.6,77.8 115.7,77.3 115.8,76.8 C115.8,76.7 115.9,76.6 115.8,76.6 C115.6,76 115.8,75.4 115.8,74.8 C115.8,74.7 115.8,74.7 115.8,74.6 C115.9,74.1 116,73.6 116,73.1 C116.1,72.7 116.1,72.2 116.2,71.8 C116.2,71.6 116.2,71.4 116.2,71.2 C116.2,71 116.2,70.8 116.2,70.6 C116.3,70.3 116.4,70 116.4,69.7 C116.4,69.3 116.5,68.9 116.5,68.4 C116.5,68 116.5,67.7 116.6,67.3 C116.7,67 116.7,66.6 116.8,66.3 C116.8,66.1 116.9,65.8 116.9,65.6 C116.9,65.4 116.9,65.2 117,64.9 C117.1,64.8 117.1,64.6 117.1,64.5 C117,64.3 117.1,64.1 117.1,64 C117,63.7 116.9,63.5 116.8,63.3 C116.7,63 116.8,62.9 117.1,62.8 C117.3,62.9 117.1,62.8 117.1,62.5 Z M156.3,54 C156.1,53.9 156.1,53.7 156.1,53.5 C156.1,53.3 156.2,53 156.3,52.8 L156.4,52.7 C156.3,52.4 156.5,52.1 156.3,51.8 C156.3,51.7 156.3,51.6 156.3,51.5 C156.3,51.4 156.3,51.3 156.3,51.2 C156.3,50.9 156.3,50.7 156.3,50.4 C156.3,50.2 156.2,50 156.3,49.8 C156.4,49.5 156.3,49.3 156.3,49 C156.3,48.7 156.3,48.4 156.3,48.1 C156.3,48 156.3,47.9 156.4,47.7 C156.4,47.5 156.6,47.4 156.5,47.2 C156.5,47 156.5,46.9 156.5,46.8 C156.6,46.6 156.6,46.3 156.6,46.1 C156.5,45.8 156.7,45.5 156.7,45.1 C156.7,44.8 156.8,44.5 156.7,44.2 C156.6,44 156.5,43.8 156.5,43.6 C156.5,43.2 156.3,43 155.9,42.9 C155.6,42.9 155.3,42.9 155,42.9 C154.5,43 154.1,43.3 153.7,43.6 C152.9,44.3 152.6,45.1 152.4,46.1 C152.3,46.6 152.3,47.2 152.2,47.7 C152.2,48.1 152.1,48.4 152.1,48.8 C152,49.7 151.9,50.5 151.9,51.4 C151.8,52.1 151.7,52.8 151.7,53.5 C151.5,55 151.4,56.5 151.3,58 C151.3,58.3 151.3,58.5 151.2,58.8 C151.2,59.3 151.1,59.8 151.1,60.3 C151.1,60.7 151.3,61.1 151.7,61.4 C152.1,61.6 152.5,61.6 152.8,61.5 C153.7,61.2 154.5,60.8 155.1,60.1 C155.5,59.8 155.6,59.3 155.9,59 C155.9,58.6 156.2,58.1 156,57.7 C156,57.6 156,57.5 156,57.4 C156,56.8 156,56.2 156.1,55.5 C156.1,55.2 156.2,54.8 156.2,54.5 C156.3,54.5 156.4,54.6 156.5,54.6 C156.4,54.4 156.3,54.2 156.2,54 C156.3,54.1 156.4,54.1 156.4,54.1 C156.4,54.2 156.4,54.1 156.3,54 Z M115.2,55.1 C115.5,55.2 115.8,55.3 116.1,55.1 C116.8,54.8 117.5,54.3 118.1,53.8 C118.3,53.7 118.4,53.6 118.5,53.4 C118.7,53.1 118.9,52.8 119.1,52.5 C119.4,51.9 119.5,51.4 119.3,50.7 C119.2,50.5 119.1,50.3 119.1,50.1 C119,49.9 118.9,49.8 118.7,49.7 C118.6,49.7 118.4,49.7 118.3,49.7 C117.8,49.7 117.4,49.8 117,50.1 C116.5,50.4 116.1,50.8 115.6,51.1 C115.4,51.3 115.2,51.5 115.1,51.7 C114.8,52 114.8,52.3 114.6,52.7 C114.4,53 114.4,53.3 114.3,53.5 C114.4,54.4 114.6,54.9 115.2,55.1 Z M158,34 C157.6,33.9 157.2,33.9 156.8,34 C156,34.2 155.4,34.6 154.8,35.2 C154.4,35.6 154.1,36.1 154,36.7 C153.9,37.1 153.9,37.5 154.1,38 C154.2,38.2 154.3,38.3 154.4,38.5 C154.5,38.6 154.7,38.7 154.9,38.7 C155.5,38.9 156.1,39 156.6,38.5 L156.8,38.4 C157.2,38.1 157.6,37.9 157.8,37.5 C158,37.2 158.2,37 158.4,36.7 C158.8,36.3 158.8,35.8 159,35.4 L159,35.3 C158.9,34.9 158.8,34.5 158.5,34.1 C158.3,34 158.1,34 158,34 Z" id="Shape" fill="#FFFFFF"></path>
            </g>
        </g>
    </g>
</svg>